<svg width="146" height="146" viewBox="0 0 146 146" fill="none" xmlns="http://www.w3.org/2000/svg">
<path d="M5.00007 73C2.79093 73 0.988489 71.2077 1.11115 69.0019C1.71673 58.1122 4.78994 47.4835 10.1196 37.928C16.0999 27.206 24.7225 18.1913 35.1681 11.7404C45.6137 5.28957 57.5353 1.61683 69.8002 1.0712C80.7307 0.584933 91.6103 2.5968 101.618 6.93193C103.645 7.81003 104.441 10.2243 103.452 12.1995L91.5576 35.9475C90.5683 37.9227 88.1704 38.7 86.1009 37.927C81.3987 36.1705 76.3778 35.3728 71.3361 35.597C64.9584 35.8808 58.7591 37.7906 53.3274 41.145C47.8957 44.4995 43.4119 49.1871 40.3022 54.7626C37.8439 59.1701 36.3088 64.0166 35.7735 69.0076C35.538 71.2041 33.7692 73 31.5601 73L5.00007 73Z" fill="#2D91FE" stroke="white" stroke-width="2"/>
<path d="M101.563 11.2898C102.491 9.28502 104.875 8.40214 106.825 9.43996C117.87 15.3179 127.215 23.9859 133.911 34.61C140.607 45.2341 144.396 57.4042 144.933 69.9049C145.028 72.112 143.204 73.8815 140.995 73.8538L114.437 73.5203C112.228 73.4926 110.482 71.6746 110.274 69.4753C109.723 63.6513 107.813 58.0176 104.674 53.0372C101.535 48.0568 97.2765 43.9032 92.2599 40.8938C90.3655 39.7574 89.4787 37.3979 90.4066 35.3931L101.563 11.2898Z" fill="#FF6769" stroke="white" stroke-width="2"/>
<path d="M53.1231 138.03C52.4774 140.143 50.2363 141.342 48.1628 140.58C35.0012 135.743 23.5082 127.155 15.1307 115.838C6.75328 104.522 1.89541 91.0218 1.11242 77.0214C0.989071 74.8157 2.79094 73.0227 5.00007 73.022L31.5601 73.0134C33.7692 73.0127 35.5385 74.8081 35.7748 77.0046C36.4839 83.5968 38.9347 89.9086 42.908 95.276C46.8813 100.643 52.2024 104.83 58.3003 107.434C60.332 108.301 61.5325 110.517 60.8868 112.63L53.1231 138.03Z" fill="#FFC359" stroke="white" stroke-width="2"/>
<path d="M141 73C143.209 73 145.012 74.7923 144.889 76.9981C144.333 86.9879 141.701 96.768 137.142 105.707C131.977 115.836 124.487 124.598 115.284 131.276C106.081 137.953 95.4282 142.356 84.1966 144.124C74.2841 145.685 64.1699 145.154 54.5005 142.583C52.3655 142.015 51.2207 139.746 51.906 137.646L60.1451 112.396C60.8304 110.296 63.0864 109.171 65.2476 109.629C69.702 110.571 74.3025 110.696 78.8222 109.985C84.6627 109.065 90.2024 106.776 94.9878 103.303C99.7731 99.8312 103.668 95.275 106.354 90.0079C108.432 85.9318 109.741 81.5196 110.227 76.9925C110.462 74.7959 112.231 73 114.44 73L141 73Z" fill="#4BDFFF" stroke="white" stroke-width="2"/>
</svg>
